<svg xmlns="http://www.w3.org/2000/svg" width="1400" height="420" viewBox="0 0 1400 420" fill="none">
  <defs>
    <linearGradient id="g1" x1="40" y1="40" x2="380" y2="380" gradientUnits="userSpaceOnUse">
      <stop offset="0" stop-color="#38BDF8"/>
      <stop offset="1" stop-color="#0EA5A8"/>
    </linearGradient>
    <linearGradient id="g2" x1="120" y1="70" x2="320" y2="310" gradientUnits="userSpaceOnUse">
      <stop offset="0" stop-color="#FFFFFF" stop-opacity="0.98"/>
      <stop offset="1" stop-color="#E6FBFF" stop-opacity="0.95"/>
    </linearGradient>
    <filter id="shadow" x="-20%" y="-20%" width="140%" height="140%">
      <feDropShadow dx="0" dy="14" stdDeviation="18" flood-color="#0F172A" flood-opacity="0.16"/>
    </filter>
  </defs>
  <rect x="48" y="48" width="324" height="324" rx="74" fill="url(#g1)" filter="url(#shadow)"/>
  <path d="M133 275 L208 145 L282 275" stroke="url(#g2)" stroke-width="30" stroke-linecap="round" stroke-linejoin="round"/>
  <path d="M230 148 H308 C329 148 346 165 346 186 V234 C346 255 329 272 308 272 H230" stroke="url(#g2)" stroke-width="30" stroke-linecap="round" stroke-linejoin="round"/>
  <circle cx="110" cy="110" r="8" fill="#EAFDFF"/>
  <circle cx="326" cy="110" r="8" fill="#EAFDFF"/>
  <circle cx="110" cy="310" r="8" fill="#EAFDFF"/>
  <line x1="110" y1="118" x2="110" y2="154" stroke="#EAFDFF" stroke-width="4" stroke-linecap="round" opacity="0.85"/>
  <line x1="326" y1="118" x2="326" y2="154" stroke="#EAFDFF" stroke-width="4" stroke-linecap="round" opacity="0.85"/>
  <line x1="110" y1="274" x2="110" y2="302" stroke="#EAFDFF" stroke-width="4" stroke-linecap="round" opacity="0.85"/>
  <text x="430" y="190" font-size="96" font-family="Arial, Helvetica, sans-serif" font-weight="700" fill="#0F172A">AI Office</text>
  <text x="433" y="257" font-size="40" font-family="Arial, Helvetica, sans-serif" font-weight="600" fill="#0EA5A8" letter-spacing="1.2">BY TECHSAVVY</text>
  <text x="433" y="311" font-size="27" font-family="Arial, Helvetica, sans-serif" fill="#475569">Practical AI training and workflow enablement for small business teams</text>
</svg>